<svg width="212" height="59" viewBox="0 0 212 59" fill="none" xmlns="http://www.w3.org/2000/svg">
<path d="M0.913438 -1.90735e-06H7.19344L9.99344 20.04H10.0734L12.8734 -1.90735e-06H19.1534V28H14.9934V6.8H14.9134L11.7134 28H8.03344L4.83344 6.8H4.75344V28H0.913438V-1.90735e-06ZM37.8369 -1.90735e-06H43.7969L48.3569 28H43.9569L43.1569 22.44V22.52H38.1569L37.3569 28H33.2769L37.8369 -1.90735e-06ZM42.6369 18.72L40.6769 4.88H40.5969L38.6769 18.72H42.6369ZM62.4916 -1.90735e-06H69.1316C71.3982 -1.90735e-06 73.0516 0.533332 74.0916 1.6C75.1316 2.64 75.6516 4.25333 75.6516 6.44V7.56C75.6516 9 75.4116 10.1733 74.9316 11.08C74.4782 11.9867 73.7716 12.64 72.8116 13.04V13.12C74.9982 13.8667 76.0916 15.8133 76.0916 18.96V21.36C76.0916 23.52 75.5182 25.1733 74.3716 26.32C73.2516 27.44 71.5982 28 69.4116 28H62.4916V-1.90735e-06ZM68.6116 11.4C69.4916 11.4 70.1449 11.1733 70.5716 10.72C71.0249 10.2667 71.2516 9.50667 71.2516 8.44V6.88C71.2516 5.86667 71.0649 5.13333 70.6916 4.68C70.3449 4.22667 69.7849 4 69.0116 4H66.8916V11.4H68.6116ZM69.4116 24C70.1849 24 70.7582 23.8 71.1316 23.4C71.5049 22.9733 71.6916 22.2533 71.6916 21.24V18.8C71.6916 17.52 71.4649 16.64 71.0116 16.16C70.5849 15.6533 69.8649 15.4 68.8516 15.4H66.8916V24H69.4116ZM94.0784 16.08L88.7584 -1.90735e-06H93.4384L96.4384 10.28H96.5184L99.5184 -1.90735e-06H103.798L98.4784 16.08V28H94.0784V16.08ZM121.377 4H116.777V-1.90735e-06H130.377V4H125.777V28H121.377V4ZM148.703 16.08L143.383 -1.90735e-06H148.063L151.063 10.28H151.143L154.143 -1.90735e-06H158.423L153.103 16.08V28H148.703V16.08ZM172.406 -1.90735e-06H178.886C181.072 -1.90735e-06 182.712 0.586665 183.806 1.76C184.899 2.93333 185.446 4.65333 185.446 6.92V9.68C185.446 11.9467 184.899 13.6667 183.806 14.84C182.712 16.0133 181.072 16.6 178.886 16.6H176.806V28H172.406V-1.90735e-06ZM178.886 12.6C179.606 12.6 180.139 12.4 180.486 12C180.859 11.6 181.046 10.92 181.046 9.96V6.64C181.046 5.68 180.859 5 180.486 4.6C180.139 4.2 179.606 4 178.886 4H176.806V12.6H178.886ZM199.835 -1.90735e-06H211.835V4H204.235V11.4H210.275V15.4H204.235V24H211.835V28H199.835V-1.90735e-06ZM58.64 41.4H75.52V43.5H58.64V41.4ZM67.5 48.18H74.56V50.28H67.5V48.18ZM57.92 55.84H76.12V57.94H57.92V55.84ZM66.44 42.24H68.72V56.88H66.44V42.24ZM60.46 46.76H62.7V56.96H60.46V46.76ZM92 48.68H102.18V50.22H92V48.68ZM91.78 56.82H102.34V58.4H91.78V56.82ZM94.74 40.08H96.42V42.62H94.74V40.08ZM97.46 40.08H99.16V42.62H97.46V40.08ZM93.94 45.36V46.44H100.08V45.36H93.94ZM93.94 42.96V44.04H100.08V42.96H93.94ZM92.34 41.54H101.76V47.88H92.34V41.54ZM94.7 52.3V53.52H99.32V52.3H94.7ZM92.82 50.98H101.32V54.84H92.82V50.98ZM98.62 54.74L100.54 55.26C100.273 55.7133 100.007 56.16 99.74 56.6C99.4867 57.04 99.2533 57.4067 99.04 57.7L97.66 57.22C97.8333 56.8733 98.0067 56.46 98.18 55.98C98.3667 55.5 98.5133 55.0867 98.62 54.74ZM93.72 55.24L95.34 54.76C95.5 55.12 95.66 55.52 95.82 55.96C95.9933 56.3867 96.1267 56.7533 96.22 57.06L94.52 57.62C94.4533 57.3 94.34 56.92 94.18 56.48C94.0333 56.0267 93.88 55.6133 93.72 55.24ZM95.1 42.32H96.44V47.3H95.1V42.32ZM97.54 42.32H98.88V47.3H97.54V42.32ZM85.66 48.82H90.14V50.24H85.66V48.82ZM89.18 48.82H90.96V56.82C90.96 57.22 90.9133 57.54 90.82 57.78C90.7267 58.02 90.5533 58.2133 90.3 58.36C90.0467 58.4933 89.7333 58.5733 89.36 58.6C88.9867 58.6267 88.5267 58.64 87.98 58.64C87.9533 58.4133 87.8867 58.1467 87.78 57.84C87.6733 57.5333 87.5667 57.2667 87.46 57.04C87.78 57.0533 88.0733 57.06 88.34 57.06C88.62 57.06 88.8067 57.06 88.9 57.06C89.0867 57.06 89.18 56.9733 89.18 56.8V48.82ZM84.66 40.72H91.02V47.06H89.24V42.26H86.32V47.06H84.66V40.72ZM83.86 46.38H91.86V49.44H90.22V47.86H85.42V49.44H83.86V46.38ZM87.22 43.2H90.42V44.44H88.36V46.88H87.22V43.2ZM84.86 48.82H86.6V52.62C86.6 53.2467 86.5667 53.9333 86.5 54.68C86.4333 55.4133 86.3067 56.1467 86.12 56.88C85.9333 57.6 85.6467 58.24 85.26 58.8C85.1533 58.6933 85.0067 58.5667 84.82 58.42C84.6333 58.2867 84.44 58.1533 84.24 58.02C84.0533 57.9 83.8933 57.8067 83.76 57.74C84.0933 57.2333 84.3333 56.6867 84.48 56.1C84.64 55.5 84.74 54.9 84.78 54.3C84.8333 53.6867 84.86 53.1133 84.86 52.58V48.82ZM86.34 54.66C86.82 54.4733 87.3733 54.2333 88 53.94C88.6267 53.6333 89.28 53.3067 89.96 52.96L90.3 54.04C89.7267 54.4 89.1667 54.76 88.62 55.12C88.0733 55.4667 87.54 55.7933 87.02 56.1L86.34 54.66ZM86.42 51.68L87.32 50.76C87.68 51 88.0467 51.2533 88.42 51.52C88.7933 51.7867 89.0867 52.0267 89.3 52.24L88.34 53.3C88.14 53.0867 87.8533 52.8267 87.48 52.52C87.1067 52.2 86.7533 51.92 86.42 51.68ZM110.8 43.56H127.22V53.42H124.98V45.68H112.96V53.52H110.8V43.56ZM111.92 50.26H126.24V52.38H111.92V50.26ZM117.82 40.06H120.08V58.72H117.82V40.06ZM149.02 44.46L151.24 45.08C150.427 47.5067 149.367 49.6067 148.06 51.38C146.753 53.14 145.173 54.6133 143.32 55.8C141.467 56.9867 139.32 57.9533 136.88 58.7C136.8 58.5267 136.68 58.3133 136.52 58.06C136.373 57.8067 136.213 57.5533 136.04 57.3C135.867 57.0467 135.707 56.84 135.56 56.68C137.933 56.0667 140 55.2333 141.76 54.18C143.52 53.1267 144.993 51.8067 146.18 50.22C147.38 48.62 148.327 46.7 149.02 44.46ZM140.9 44.6C141.62 46.5867 142.593 48.38 143.82 49.98C145.06 51.58 146.567 52.94 148.34 54.06C150.127 55.18 152.187 56.02 154.52 56.58C154.36 56.74 154.187 56.94 154 57.18C153.813 57.42 153.633 57.66 153.46 57.9C153.3 58.1533 153.167 58.38 153.06 58.58C150.62 57.9267 148.5 56.9867 146.7 55.76C144.9 54.52 143.36 53.02 142.08 51.26C140.813 49.4867 139.76 47.4733 138.92 45.22L140.9 44.6ZM135.92 43.48H154.18V45.58H135.92V43.48ZM143.3 40.54L145.58 39.88C145.86 40.3467 146.14 40.8667 146.42 41.44C146.7 42.0133 146.9 42.5133 147.02 42.94L144.6 43.68C144.493 43.2667 144.313 42.7667 144.06 42.18C143.82 41.58 143.567 41.0333 143.3 40.54Z" fill="#F4F3F1"/>
</svg>
